<svg width="18" height="18" viewBox="0 0 18 18" fill="none" xmlns="http://www.w3.org/2000/svg">
<path d="M2.8125 8.43752H14.0341L9.73716 4.34477C9.51216 4.13045 9.50344 3.77439 9.71775 3.54939C9.93178 3.32467 10.2878 3.31567 10.5131 3.52998L15.4204 8.20436C15.6327 8.41698 15.75 8.69936 15.75 9.00002C15.75 9.30039 15.6327 9.58305 15.4105 9.80495L10.5128 14.4698C10.404 14.5735 10.2645 14.625 10.125 14.625C9.9765 14.625 9.828 14.5665 9.71747 14.4504C9.50316 14.2254 9.51188 13.8696 9.73688 13.6553L14.0518 9.56252H2.8125C2.502 9.56252 2.25 9.31052 2.25 9.00002C2.25 8.68952 2.502 8.43752 2.8125 8.43752Z" fill="#1A1A1A"/>
</svg>
