<svg width="50" height="50" viewBox="0 0 50 50" fill="none" xmlns="http://www.w3.org/2000/svg">
<path d="M24.989 45.2297H9.53116C7.81866 45.2281 6.43116 43.8406 6.4296 42.1281V21.364L22.1874 7.50935C23.7905 6.10466 26.1874 6.10466 27.7905 7.50935L43.8843 21.6515L43.9124 21.6765L47.6624 24.9687C48.1483 25.3953 48.889 25.3484 49.3155 24.8625C49.7421 24.3765 49.6952 23.6359 49.2093 23.2093L45.8968 20.2968V8.46872C45.8421 5.06716 43.0405 2.3531 39.639 2.40622C36.314 2.45935 33.6296 5.14216 33.5765 8.46872V9.47185L29.3577 5.75622C26.8687 3.57497 23.1499 3.57497 20.6608 5.75622L0.781162 23.2093C0.295225 23.6359 0.246787 24.3765 0.674912 24.8625C1.10304 25.3484 1.8421 25.3968 2.3296 24.9703H2.33429L4.0921 23.425V42.1281C4.09522 45.1343 6.53116 47.5703 9.53741 47.5734H24.9905C25.6374 47.5734 26.1624 47.0484 26.1624 46.4015C26.1608 45.7547 25.6358 45.2297 24.989 45.2297ZM35.9077 8.46872C35.9499 6.36091 37.6937 4.68747 39.8015 4.72966C41.8484 4.77185 43.4999 6.42185 43.5405 8.46872V18.2359L35.9077 11.5265V8.46872Z" fill="#1A1A1A"/>
<path d="M24.989 14.2328C21.8656 14.2328 19.3328 16.7656 19.3328 19.889C19.3328 23.0125 21.8656 25.5453 24.989 25.5453C28.1125 25.5453 30.6453 23.0125 30.6453 19.889C30.6421 16.7656 28.1109 14.2359 24.989 14.2328ZM28.3015 19.889C28.2984 21.7172 26.8171 23.1984 24.989 23.2C23.1593 23.2 21.6765 21.7172 21.6765 19.8875C21.6765 18.0578 23.1593 16.575 24.989 16.575C26.8187 16.575 28.3015 18.0578 28.3015 19.889C28.3015 19.8875 28.3015 19.8875 28.3015 19.889Z" fill="#1A1A1A"/>
<path d="M49.314 45.6359C49.3 45.6203 49.2859 45.6047 49.2703 45.5906L45.3156 41.4531C46.3093 40.0797 46.8453 38.4281 46.8484 36.7328C46.8484 32.2328 43.2 28.5844 38.7 28.5844C34.2 28.5844 30.5515 32.2328 30.5515 36.7328C30.5515 41.2328 34.2 44.8812 38.7 44.8812C40.5093 44.8734 42.264 44.2578 43.6812 43.1328L47.5765 47.2093C48.0109 47.689 48.7515 47.7265 49.2312 47.2922C49.7109 46.8578 49.7484 46.1156 49.314 45.6359ZM38.7 42.5375C35.4937 42.5375 32.8953 39.939 32.8953 36.7328C32.8953 33.5265 35.4937 30.9281 38.7 30.9281C41.9062 30.9281 44.5046 33.5265 44.5046 36.7328C44.5 39.9359 41.9046 42.5328 38.7 42.5375Z" fill="#1A1A1A"/>
</svg>
