<svg width="50" height="50" viewBox="0 0 50 50" fill="none" xmlns="http://www.w3.org/2000/svg">
<g clip-path="url(#clip0_111_1539)">
<path d="M48.9532 20.4658L31.4532 7.96582C31.0183 7.65498 30.5091 7.5 29.9999 7.5C29.4907 7.5 28.9815 7.65498 28.5466 7.96582L17.6324 15.7616C18.3549 16.2107 18.9541 16.8375 19.3708 17.5925L29.9999 10L47.4999 22.5H42.4999V45H17.7149L17.5166 47.5H42.4999C43.8808 47.5 44.9999 46.3809 44.9999 45V25H47.4999C48.5866 25 49.549 24.2983 49.8799 23.2634C50.2124 22.2283 49.8374 21.0975 48.9532 20.4658Z" fill="#1A1A1A"/>
<path d="M19.9589 33.3025L17.4589 19.5525C17.2431 18.3642 16.2081 17.5 14.9998 17.5H4.99976C3.79146 17.5 2.7564 18.3642 2.54058 19.5533L0.0405834 33.3033C-0.0919362 34.0325 0.105622 34.7833 0.580622 35.3524C1.05562 35.9216 1.75894 36.2499 2.49976 36.2499H4.09722L5.00806 47.6982C5.11138 48.9975 6.19556 50 7.49976 50H12.4998C13.804 50 14.8889 48.9975 14.9922 47.6983L15.9023 36.25H17.4998C18.2415 36.25 18.9439 35.9208 19.4189 35.3517C19.8939 34.7825 20.0915 34.0325 19.9589 33.3025ZM13.5931 33.75L12.4998 47.5H7.49976L6.4064 33.75H2.49976L4.99976 20H8.74976V27.605C8.74976 28.2958 9.30894 28.855 9.99976 28.855C10.6906 28.855 11.2498 28.2958 11.2498 27.605V20H14.9998L17.4998 33.75H13.5931Z" fill="#1A1A1A"/>
<path d="M9.99976 0C5.8648 0 2.49976 3.36504 2.49976 7.5C2.49976 11.635 5.8648 15 9.99976 15C14.1356 15 17.4998 11.6358 17.4998 7.5C17.4998 3.36416 14.1356 0 9.99976 0ZM9.99976 12.5C7.23814 12.5 4.99976 10.2616 4.99976 7.5C4.99976 4.73838 7.23814 2.5 9.99976 2.5C12.7614 2.5 14.9998 4.73838 14.9998 7.5C14.9998 10.2616 12.7614 12.5 9.99976 12.5Z" fill="#1A1A1A"/>
</g>
<defs>
<clipPath id="clip0_111_1539">
<rect width="50" height="50" fill="white"/>
</clipPath>
</defs>
</svg>
