<svg width="20" height="20" viewBox="0 0 20 20" fill="none" xmlns="http://www.w3.org/2000/svg">
<g clip-path="url(#clip0_111_1166)">
<path d="M20 10.1554C20 9.18619 19.2114 8.39764 18.2422 8.39764H3.125V2.97779C3.125 2.56346 3.28621 2.1742 3.57934 1.88135C4.03207 1.42818 4.69547 1.31291 5.25797 1.54127C4.48469 2.78369 4.62086 4.45783 5.72371 5.56057L5.86625 5.70311C6.09484 5.93178 6.46613 5.93193 6.69488 5.70311L10.4727 1.92525C10.7014 1.69654 10.7015 1.32537 10.4727 1.09654L10.3302 0.954121C9.14891 -0.227207 7.32887 -0.289902 6.07945 0.645996C5.03352 0.0150588 3.65617 0.146465 2.7507 1.05272C2.23637 1.56658 1.95312 2.25025 1.95312 2.97779V8.39764H1.75781C0.788555 8.39764 0 9.18615 0 10.1554C0 10.9126 0.481172 11.5595 1.15383 11.8063V13.0825C1.15383 15.2498 2.40316 17.1304 4.21926 18.0431L3.66652 19.1527C3.52227 19.4424 3.64008 19.7941 3.92973 19.9384C4.21961 20.0827 4.57121 19.9647 4.71547 19.6752L5.32234 18.4569C5.76352 18.5702 6.22574 18.6305 6.7018 18.6305H13.2982C13.7742 18.6305 14.2364 18.5702 14.6776 18.4569L15.2845 19.6752C15.4288 19.9648 15.7805 20.0826 16.0702 19.9384C16.3599 19.7941 16.4777 19.4424 16.3334 19.1527L15.7807 18.0431C17.5968 17.1305 18.8461 15.2498 18.8461 13.0825V11.8063C19.5188 11.5595 20 10.9126 20 10.1554ZM9.20492 1.5358L6.30539 4.43533C5.7523 3.63068 5.82473 2.51025 6.5523 1.78272C7.27945 1.05564 8.39977 0.982364 9.20492 1.5358ZM1.75781 9.56951H18.2422C18.5653 9.56951 18.8281 9.83232 18.8281 10.1554C18.8281 10.4785 18.5653 10.7414 18.2422 10.7414H1.75781C1.43473 10.7414 1.17188 10.4785 1.17188 10.1554C1.17188 9.83232 1.43473 9.56951 1.75781 9.56951ZM17.6743 13.0825C17.6743 15.4955 15.7112 17.4586 13.2982 17.4586H6.7018C4.28883 17.4586 2.3257 15.4955 2.3257 13.0825V11.9133H17.6743V13.0825Z" fill="white"/>
<path d="M9.03894 6.51245C9.36254 6.51245 9.62488 6.25012 9.62488 5.92651C9.62488 5.60291 9.36254 5.34058 9.03894 5.34058C8.71534 5.34058 8.453 5.60291 8.453 5.92651C8.453 6.25012 8.71534 6.51245 9.03894 6.51245Z" fill="white"/>
<path d="M10.6962 4.85522C11.0198 4.85522 11.2821 4.59289 11.2821 4.26929C11.2821 3.94568 11.0198 3.68335 10.6962 3.68335C10.3726 3.68335 10.1102 3.94568 10.1102 4.26929C10.1102 4.59289 10.3726 4.85522 10.6962 4.85522Z" fill="white"/>
<path d="M11.0896 6.90588C11.4132 6.90588 11.6755 6.64355 11.6755 6.31995C11.6755 5.99634 11.4132 5.73401 11.0896 5.73401C10.766 5.73401 10.5037 5.99634 10.5037 6.31995C10.5037 6.64355 10.766 6.90588 11.0896 6.90588Z" fill="white"/>
</g>
<defs>
<clipPath id="clip0_111_1166">
<rect width="20" height="20" fill="white"/>
</clipPath>
</defs>
</svg>
