<svg width="20" height="20" viewBox="0 0 20 20" fill="none" xmlns="http://www.w3.org/2000/svg">
<path d="M17.5312 6.27605H8.74477C8.27559 6.27605 7.8266 6.40671 7.4382 6.64995C7.33023 5.38765 6.26895 4.39327 4.97918 4.39327C4.50371 4.39327 4.05945 4.5287 3.6823 4.76257V3.72394C3.6823 3.40034 3.41996 3.138 3.09637 3.138H0.585938C0.262344 3.138 0 3.40034 0 3.72394V16.276C0 16.5996 0.262344 16.8619 0.585938 16.8619H3.09637C3.41996 16.8619 3.6823 16.5996 3.6823 16.276V14.3516H16.3177V16.276C16.3177 16.5996 16.5801 16.862 16.9037 16.862H19.4141C19.7377 16.862 20 16.5996 20 16.276V8.7448C20 7.38124 18.8968 6.27605 17.5312 6.27605ZM4.97918 5.56511C5.6943 5.56511 6.27605 6.14691 6.27605 6.86199C6.27605 7.5771 5.69426 8.15886 4.97918 8.15886C4.2641 8.15886 3.6823 7.57706 3.6823 6.86199C3.6823 6.14687 4.26406 5.56511 4.97918 5.56511ZM3.6823 8.96144C4.05945 9.19527 4.50371 9.33073 4.97918 9.33073C5.45465 9.33073 5.89891 9.1953 6.27605 8.96144V10.6693H3.6823V8.96144ZM18.8281 15.6901H17.4896V13.7656C17.4896 13.442 17.2272 13.1797 16.9036 13.1797H3.09637C2.77277 13.1797 2.51043 13.442 2.51043 13.7656V15.6901H1.17188V4.30988H2.51043V11.2552C2.51043 11.5788 2.77277 11.8411 3.09637 11.8411H18.8281V15.6901ZM18.8281 10.6693H7.44793V8.74476C7.44793 8.02796 8.02762 7.44788 8.74477 7.44788H17.5312C18.2481 7.44788 18.8281 8.02761 18.8281 8.74476V10.6693Z" fill="white"/>
</svg>
