<svg width="20" height="20" viewBox="0 0 20 20" fill="none" xmlns="http://www.w3.org/2000/svg">
<path d="M17.5312 6.27599H8.74477C8.27559 6.27599 7.8266 6.40665 7.4382 6.64989C7.33023 5.38759 6.26895 4.39321 4.97918 4.39321C4.50371 4.39321 4.05945 4.52864 3.6823 4.76251V3.72388C3.6823 3.40028 3.41996 3.13794 3.09637 3.13794H0.585938C0.262344 3.13794 0 3.40028 0 3.72388V16.2759C0 16.5995 0.262344 16.8619 0.585938 16.8619H3.09637C3.41996 16.8619 3.6823 16.5995 3.6823 16.2759V14.3515H16.3177V16.276C16.3177 16.5996 16.5801 16.8619 16.9037 16.8619H19.4141C19.7377 16.8619 20 16.5996 20 16.276V8.74474C20 7.38118 18.8968 6.27599 17.5312 6.27599ZM4.97918 5.56505C5.6943 5.56505 6.27605 6.14685 6.27605 6.86192C6.27605 7.57704 5.69426 8.1588 4.97918 8.1588C4.2641 8.1588 3.6823 7.577 3.6823 6.86192C3.6823 6.14681 4.26406 5.56505 4.97918 5.56505ZM3.6823 8.96138C4.05945 9.1952 4.50371 9.33067 4.97918 9.33067C5.45465 9.33067 5.89891 9.19524 6.27605 8.96138V10.6692H3.6823V8.96138ZM18.8281 15.69H17.4896V13.7656C17.4896 13.442 17.2272 13.1796 16.9036 13.1796H3.09637C2.77277 13.1796 2.51043 13.442 2.51043 13.7656V15.69H1.17188V4.30981H2.51043V11.2551C2.51043 11.5787 2.77277 11.8411 3.09637 11.8411H18.8281V15.69ZM18.8281 10.6692H7.44793V8.7447C7.44793 8.0279 8.02762 7.44782 8.74477 7.44782H17.5312C18.2481 7.44782 18.8281 8.02755 18.8281 8.7447V10.6692Z" fill="#3D3E3F"/>
</svg>
