<svg width="20" height="20" viewBox="0 0 20 20" fill="none" xmlns="http://www.w3.org/2000/svg">
<g clip-path="url(#clip0_111_1175)">
<path d="M15.8984 18.8281H13.4766C13.153 18.8281 12.8906 19.0905 12.8906 19.4141C12.8906 19.7377 13.153 20 13.4766 20H15.8984C16.222 20 16.4844 19.7377 16.4844 19.4141C16.4844 19.0905 16.222 18.8281 15.8984 18.8281Z" fill="white"/>
<path d="M11.1328 18.8281H8.78906C8.46547 18.8281 8.20312 19.0905 8.20312 19.4141C8.20312 19.7377 8.46547 20 8.78906 20H11.1328C11.4564 20 11.7188 19.7377 11.7188 19.4141C11.7188 19.0905 11.4564 18.8281 11.1328 18.8281Z" fill="white"/>
<path d="M19.4141 8.20312C19.0905 8.20312 18.8281 8.46547 18.8281 8.78906V11.1328C18.8281 11.4564 19.0905 11.7188 19.4141 11.7188C19.7377 11.7188 20 11.4564 20 11.1328V8.78906C20 8.46547 19.7377 8.20312 19.4141 8.20312Z" fill="white"/>
<path d="M19.4141 12.8906C19.0905 12.8906 18.8281 13.153 18.8281 13.4766V15.8203C18.8281 16.1439 19.0905 16.4062 19.4141 16.4062C19.7377 16.4062 20 16.1439 20 15.8203V13.4766C20 13.153 19.7377 12.8906 19.4141 12.8906Z" fill="white"/>
<path d="M6.44531 18.8281H5.85938V18.2422C5.85938 17.9186 5.59703 17.6562 5.27344 17.6562C4.94984 17.6562 4.6875 17.9186 4.6875 18.2422V19.4141C4.6875 19.7377 4.94984 20 5.27344 20H6.44531C6.76891 20 7.03125 19.7377 7.03125 19.4141C7.03125 19.0905 6.76891 18.8281 6.44531 18.8281Z" fill="white"/>
<path d="M19.4141 4.6875H18.2422C17.9186 4.6875 17.6562 4.94984 17.6562 5.27344C17.6562 5.59703 17.9186 5.85938 18.2422 5.85938H18.8281V6.44531C18.8281 6.76891 19.0905 7.03125 19.4141 7.03125C19.7377 7.03125 20 6.76891 20 6.44531V5.27344C20 4.94984 19.7377 4.6875 19.4141 4.6875Z" fill="white"/>
<path d="M19.4141 17.6562C19.0905 17.6562 18.8281 17.9186 18.8281 18.2422V18.8281H18.2422C17.9186 18.8281 17.6562 19.0905 17.6562 19.4141C17.6562 19.7377 17.9186 20 18.2422 20H19.4141C19.7377 20 20 19.7377 20 19.4141V18.2422C20 17.9186 19.7377 17.6562 19.4141 17.6562Z" fill="white"/>
<path d="M15.8984 4.6875H15.2344V0.585938C15.2344 0.262344 14.972 0 14.6484 0H0.585938C0.262344 0 0 0.262344 0 0.585938V14.6484C0 14.972 0.262344 15.2344 0.585938 15.2344H4.6875V15.8203C4.6875 16.1439 4.94984 16.4062 5.27344 16.4062C5.59703 16.4062 5.85938 16.1439 5.85938 15.8203V14.6484V5.85938H14.6484H15.8984C16.222 5.85938 16.4844 5.59703 16.4844 5.27344C16.4844 4.94984 16.222 4.6875 15.8984 4.6875ZM14.0625 4.6875H5.27344C4.94984 4.6875 4.6875 4.94984 4.6875 5.27344V14.0625H1.17188V1.17188H14.0625V4.6875Z" fill="white"/>
</g>
<defs>
<clipPath id="clip0_111_1175">
<rect width="20" height="20" fill="white"/>
</clipPath>
</defs>
</svg>
