<svg width="17" height="17" viewBox="0 0 17 17" fill="none" xmlns="http://www.w3.org/2000/svg">
<g clip-path="url(#clip0_8_87)">
<path d="M8.78745 7.80389C9.85147 7.80389 10.7727 7.42227 11.5257 6.66933C12.2784 5.91651 12.6601 4.99539 12.6601 3.93124C12.6601 2.86746 12.2785 1.94622 11.5255 1.19316C10.7726 0.44046 9.85135 0.0588379 8.78745 0.0588379C7.72329 0.0588379 6.80218 0.44046 6.04936 1.19328C5.29654 1.9461 4.91479 2.86734 4.91479 3.93124C4.91479 4.99539 5.29654 5.91664 6.04936 6.66945C6.80242 7.42215 7.72366 7.80389 8.78745 7.80389ZM6.71569 1.85949C7.29334 1.28184 7.97096 1.00106 8.78745 1.00106C9.60381 1.00106 10.2816 1.28184 10.8593 1.85949C11.437 2.43726 11.7179 3.11501 11.7179 3.93124C11.7179 4.74773 11.437 5.42535 10.8593 6.00312C10.2816 6.58089 9.60381 6.86168 8.78745 6.86168C7.97121 6.86168 7.29359 6.58076 6.71569 6.00312C6.13792 5.42547 5.85701 4.74773 5.85701 3.93124C5.85701 3.11501 6.13792 2.43726 6.71569 1.85949Z" fill="white"/>
<path d="M15.5636 12.4224C15.5419 12.1092 15.4979 11.7674 15.4333 11.4065C15.368 11.0429 15.284 10.6992 15.1834 10.385C15.0794 10.0603 14.9382 9.73968 14.7634 9.4324C14.5822 9.11346 14.3693 8.83574 14.1303 8.60721C13.8804 8.36813 13.5745 8.1759 13.2207 8.03569C12.8682 7.89622 12.4775 7.82556 12.0595 7.82556C11.8954 7.82556 11.7367 7.89291 11.4301 8.09249C11.2415 8.21553 11.0208 8.35782 10.7745 8.51521C10.5638 8.64941 10.2785 8.77514 9.92608 8.88898C9.58224 9.00024 9.23313 9.05667 8.88843 9.05667C8.54397 9.05667 8.19486 9.00024 7.85077 8.88898C7.49871 8.77526 7.21326 8.64953 7.00301 8.51533C6.75902 8.35942 6.53822 8.21712 6.34673 8.09237C6.04043 7.89278 5.8817 7.82544 5.71757 7.82544C5.29951 7.82544 4.90893 7.89622 4.55651 8.03582C4.20297 8.17578 3.89692 8.368 3.6468 8.60733C3.40784 8.83598 3.19488 9.11358 3.01382 9.4324C2.83927 9.73968 2.69795 10.0602 2.59393 10.3852C2.49346 10.6993 2.40944 11.0429 2.34418 11.4065C2.27941 11.7669 2.23561 12.1088 2.2139 12.4228C2.19256 12.7299 2.18176 13.0494 2.18176 13.3723C2.18176 14.2116 2.44857 14.891 2.97469 15.3921C3.49432 15.8866 4.18175 16.1373 5.01799 16.1373H12.7599C13.5958 16.1373 14.2833 15.8866 14.803 15.3921C15.3293 14.8914 15.5961 14.2117 15.5961 13.3721C15.596 13.0482 15.585 12.7286 15.5636 12.4224ZM14.1534 14.7095C13.81 15.0363 13.3542 15.1951 12.7597 15.1951H5.01799C4.42341 15.1951 3.96757 15.0363 3.62435 14.7096C3.28762 14.3891 3.12398 13.9515 3.12398 13.3723C3.12398 13.071 3.13392 12.7735 3.15379 12.488C3.17317 12.2078 3.21279 11.9 3.27155 11.573C3.32957 11.25 3.40342 10.9469 3.49125 10.6725C3.57552 10.4093 3.69047 10.1488 3.83301 9.8978C3.96905 9.6586 4.12557 9.45338 4.29829 9.28802C4.45984 9.13333 4.66347 9.00674 4.90341 8.91179C5.12532 8.82396 5.37471 8.77588 5.64544 8.76864C5.67843 8.78618 5.73719 8.81967 5.83238 8.88174C6.02608 9.00797 6.24933 9.15198 6.49614 9.30961C6.77436 9.48699 7.13279 9.64719 7.56103 9.78544C7.99884 9.927 8.44535 9.99888 8.88855 9.99888C9.33175 9.99888 9.77839 9.927 10.2159 9.78556C10.6446 9.64707 11.0029 9.48699 11.2814 9.30936C11.534 9.14793 11.751 9.00809 11.9447 8.88174C12.0399 8.81979 12.0987 8.78618 12.1317 8.76864C12.4025 8.77588 12.6519 8.82396 12.8739 8.91179C13.1138 9.00674 13.3174 9.13346 13.4789 9.28802C13.6517 9.45325 13.8082 9.65848 13.9442 9.89793C14.0869 10.1488 14.2019 10.4095 14.2861 10.6723C14.3741 10.9471 14.448 11.2501 14.5059 11.5728C14.5646 11.9005 14.6043 12.2084 14.6237 12.4881V12.4883C14.6437 12.7728 14.6537 13.0701 14.6539 13.3723C14.6537 13.9516 14.4901 14.3891 14.1534 14.7095Z" fill="white"/>
</g>
<defs>
<clipPath id="clip0_8_87">
<rect width="16.0784" height="16.0785" fill="white" transform="translate(0.862793 0.0588379)"/>
</clipPath>
</defs>
</svg>
