<svg width="20" height="20" viewBox="0 0 20 20" fill="none" xmlns="http://www.w3.org/2000/svg">
<path d="M4.53192 19C5.00139 18.9993 5.4623 18.8744 5.86792 18.638L16.7999 12.314C17.2061 12.0795 17.5434 11.7422 17.7779 11.336C18.0124 10.9298 18.1359 10.469 18.1359 10C18.1359 9.53097 18.0124 9.07021 17.7779 8.66402C17.5434 8.25783 17.2061 7.92052 16.7999 7.686L5.86792 1.37C5.4617 1.13803 5.00172 1.01668 4.53392 1.01808C4.06613 1.01948 3.60689 1.14357 3.20205 1.37797C2.79722 1.61237 2.46096 1.94887 2.22685 2.35387C1.99275 2.75888 1.86898 3.21821 1.86792 3.686V16.314C1.86685 17.0229 2.14648 17.7034 2.64568 18.2067C3.14488 18.71 3.82304 18.9952 4.53192 19ZM3.25792 3.686C3.25626 3.46207 3.31431 3.24174 3.4261 3.04769C3.53789 2.85365 3.69937 2.6929 3.89392 2.582C4.08733 2.4694 4.30713 2.41007 4.53092 2.41007C4.75472 2.41007 4.97452 2.4694 5.16792 2.582L16.1059 8.898C16.2986 9.00985 16.4584 9.17033 16.5696 9.36337C16.6807 9.55641 16.7392 9.77526 16.7392 9.998C16.7392 10.2207 16.6807 10.4396 16.5696 10.6326C16.4584 10.8257 16.2986 10.9861 16.1059 11.098L5.16792 17.418C4.97423 17.5296 4.75458 17.5883 4.53103 17.5881C4.30749 17.588 4.08792 17.529 3.89438 17.4171C3.70084 17.3052 3.54014 17.1444 3.42842 16.9508C3.31671 16.7572 3.2579 16.5375 3.25792 16.314V3.686Z" fill="white"/>
</svg>
